<?xml version="1.0" encoding="utf-8"?>
<!-- Svg Vector Icons : http://www.onlinewebfonts.com/icon -->
<!DOCTYPE svg PUBLIC "-//W3C//DTD SVG 1.1//EN" "http://www.w3.org/Graphics/SVG/1.1/DTD/svg11.dtd">
<svg version="1.1" xmlns="http://www.w3.org/2000/svg" xmlns:xlink="http://www.w3.org/1999/xlink" x="0px" y="0px" viewBox="0 0 1000 1000" enable-background="new 0 0 1000 1000" xml:space="preserve" fill="#2180CE">
<metadata> Svg Vector Icons : http://www.onlinewebfonts.com/icon </metadata>
<g><path d="M981.5,621.1c-7.9-8-19.6-10.6-30.3-7.1c-46.5,15.8-94.5,23.8-142.5,23.8c-245,0-444.3-199.3-444.3-444.3c0-48.8,8.3-97.5,24.7-144.9c3.6-10.6,1-22.4-6.9-30.3c-7.9-8-19.6-10.7-30.3-7.1C147.3,80.4,10,271.7,10,487.3c0,277.4,225.7,503.2,503.1,503.2c214.3,0,405.2-136.2,475.3-339.1C992,640.8,989.4,629,981.5,621.1L981.5,621.1L981.5,621.1z"/></g>
</svg>