<?xml version="1.0" encoding="utf-8"?>
<!-- Svg Vector Icons : http://www.onlinewebfonts.com/icon -->
<!DOCTYPE svg PUBLIC "-//W3C//DTD SVG 1.1//EN" "http://www.w3.org/Graphics/SVG/1.1/DTD/svg11.dtd">
<svg fill="#FF999A" version="1.1" xmlns="http://www.w3.org/2000/svg" xmlns:xlink="http://www.w3.org/1999/xlink" x="0px" y="0px" viewBox="0 0 1000 1000" enable-background="new 0 0 1000 1000" xml:space="preserve">
<metadata> Svg Vector Icons : http://www.onlinewebfonts.com/icon </metadata>
<g><g transform="translate(0.000000,511.000000) scale(0.100000,-0.100000)"><path d="M4621.7,3966.5c-200.6-571.2-360.5-1046-355.4-1051.1c5.1-5.1,83.8,10.2,175.2,33c226,55.9,914,55.9,1137.4,0c86.3-20.3,157.4-33,157.4-22.8c0,33-723.6,2084.4-736.3,2084.4C4992.4,5010,4822.3,4540.3,4621.7,3966.5z"/><path d="M1526.8,3570.5c7.6-10.2,220.9-459.5,477.3-997.8s472.2-987.6,482.4-997.8c10.2-10.2,68.6,58.4,129.5,152.3c142.2,220.9,543.3,624.6,764.2,769.3c93.9,60.9,167.6,114.2,165,116.8c-2.5,2.5-426.5,208.2-944.5,454.5c-515.4,248.8-972.4,467.1-1013,487.5C1549.7,3575.5,1521.8,3583.2,1526.8,3570.5z"/><path d="M7475.4,3098.2c-530.6-253.9-969.9-469.7-977.5-479.9c-7.6-7.6,60.9-66,152.3-124.4c213.3-142.2,622-550.9,749-751.5c55.9-88.9,106.6-159.9,114.3-159.9c7.6,0,142.2,266.6,297.1,591.5c154.9,322.4,368.1,769.3,474.8,990.2c104.1,218.3,182.8,398.6,172.6,398.6C8447.8,3562.9,8006,3352.1,7475.4,3098.2z"/><path d="M4576,2560c-761.7-137.1-1439.5-644.9-1784.8-1332.9c-408.8-820-347.8-1746.7,165-2526.2c132-200.6,441.8-510.3,644.9-647.4c213.3-142.2,538.2-294.5,782-360.5c167.6-48.2,264-55.9,642.3-55.9c411.3,0,462.1,5.1,670.3,71.1c1706.1,520.5,2356.1,2498.2,1287.2,3920C6439.5,2346.7,5472.2,2722.5,4576,2560z"/><path d="M1123.2,483.2C559.5,285.2,100,117.6,100,110c0-17.8,2081.9-743.9,2094.6-731.2c7.6,5.1-7.6,96.5-30.5,200.6c-53.3,251.4-53.3,807.4,2.5,1058.7c48.2,223.4,48.2,208.2,10.2,205.7C2159,843.7,1684.2,681.2,1123.2,483.2z"/><path d="M7828.3,780.3c86.3-342.7,101.6-875.9,33-1203.4c-20.3-104.1-35.6-192.9-33-195.5C7838.4-628.8,9900,97.3,9900,110c0,7.6-454.5,172.6-1010.5,365.6c-553.5,193-1023.2,358-1043.5,365.6C7818.1,851.4,7815.6,838.7,7828.3,780.3z"/><path d="M2009.2-2345.1c-266.6-556-482.4-1013-477.3-1015.5c2.5-5.1,365.6,165,804.8,375.7c439.2,210.7,893.7,429.1,1010.5,482.4l210.7,99l-160,106.6c-215.8,139.6-672.8,601.7-794.7,802.3c-55.9,86.3-101.6,157.4-104.1,157.4C2496.7-1337.1,2275.8-1791.6,2009.2-2345.1z"/><path d="M7376.4-1563.1c-144.7-215.8-566.2-624.5-761.7-741.3c-76.2-48.3-142.2-93.9-142.2-101.6c0-12.7,1957.5-962.2,1987.9-962.2c7.6,0-200.6,444.3-462.1,990.2c-258.9,543.3-479.8,990.2-487.4,990.2C7503.3-1387.9,7442.4-1466.6,7376.4-1563.1z"/><path d="M4263.7-2703c0-35.6,723.6-2087,736.3-2087c15.2,0,738.8,2061.6,728.7,2071.7c-2.5,5.1-109.2-10.1-233.6-33c-274.2-45.7-888.6-33-1096.8,25.4C4324.7-2703,4263.7-2695.4,4263.7-2703z"/></g></g>
</svg>